<?xml version="1.0" encoding="UTF-8" standalone="no"?>
<svg
   width="16"
   height="16"
   version="1.1"
   id="svg7"
   sodipodi:docname="plugin.svg"
   inkscape:version="1.2.1 (9c6d41e410, 2022-07-14)"
   xmlns:inkscape="http://www.inkscape.org/namespaces/inkscape"
   xmlns:sodipodi="http://sodipodi.sourceforge.net/DTD/sodipodi-0.dtd"
   xmlns="http://www.w3.org/2000/svg"
   xmlns:svg="http://www.w3.org/2000/svg">
  <sodipodi:namedview
     id="namedview9"
     pagecolor="#ffffff"
     bordercolor="#000000"
     borderopacity="0.25"
     inkscape:showpageshadow="2"
     inkscape:pageopacity="0.0"
     inkscape:pagecheckerboard="0"
     inkscape:deskcolor="#d1d1d1"
     showgrid="false"
     inkscape:zoom="64.1875"
     inkscape:cx="7.9922103"
     inkscape:cy="7.9922103"
     inkscape:window-width="3840"
     inkscape:window-height="2067"
     inkscape:window-x="0"
     inkscape:window-y="0"
     inkscape:window-maximized="1"
     inkscape:current-layer="svg7" />
  <defs
     id="defs3">
    <style
       id="current-color-scheme"
       type="text/css">
   .ColorScheme-Text { color:#6e6e6e; } .ColorScheme-Highlight { color:#4285f4; }
  </style>
  </defs>
  <path
     style="fill:#99c1f1;stroke:#62a0ea"
     class="ColorScheme-Text"
     d="M 6.5,1 C 6.5,1 5,1 5,2.5 V 4 H 2 C 1,4 1,5 1,5 V 8 H 2.5 C 4,8 4,9.5 4,9.5 4,9.5 4,11 2.5,11 H 1 V 14 C 1,15 2,15 2,15 H 5 V 14 C 5,12 6.5,12 6.5,12 6.5,12 8,12 8,14 V 15 H 11 C 12,15 12,14 12,14 V 11 H 13.5 C 15,11 15,9.5 15,9.5 15,9.5 15,8 13.5,8 H 12 V 5 C 12,4 11,4 11,4 H 8 V 2.5 C 8,1 6.5,1 6.5,1 Z"
     id="path5" />
</svg>
