<?xml version="1.0" encoding="UTF-8" standalone="no"?>
<!-- Created with Inkscape (http://www.inkscape.org/) -->

<svg
   xmlns:dc="http://purl.org/dc/elements/1.1/"
   xmlns:cc="http://creativecommons.org/ns#"
   xmlns:rdf="http://www.w3.org/1999/02/22-rdf-syntax-ns#"
   xmlns:svg="http://www.w3.org/2000/svg"
   xmlns="http://www.w3.org/2000/svg"
   xmlns:sodipodi="http://sodipodi.sourceforge.net/DTD/sodipodi-0.dtd"
   xmlns:inkscape="http://www.inkscape.org/namespaces/inkscape"
   version="1.1"
   id="svg2"
   xml:space="preserve"
   width="210.07939"
   height="262.11169"
   viewBox="0 0 210.07939 262.11169"
   sodipodi:docname="ILRS Logo_Pantone.svg"
   inkscape:version="0.92.3 (2405546, 2018-03-11)"><metadata
     id="metadata8"><rdf:RDF><cc:Work
         rdf:about=""><dc:format>image/svg+xml</dc:format><dc:type
           rdf:resource="http://purl.org/dc/dcmitype/StillImage" /><dc:title></dc:title></cc:Work></rdf:RDF></metadata><defs
     id="defs6" /><sodipodi:namedview
     pagecolor="#ffffff"
     bordercolor="#666666"
     borderopacity="1"
     objecttolerance="10"
     gridtolerance="10"
     guidetolerance="10"
     inkscape:pageopacity="1"
     inkscape:pageshadow="2"
     inkscape:window-width="1920"
     inkscape:window-height="1135"
     id="namedview4"
     showgrid="false"
     fit-margin-top="20"
     fit-margin-left="20"
     fit-margin-bottom="20"
     fit-margin-right="20"
     inkscape:zoom="2.1197604"
     inkscape:cx="158.90367"
     inkscape:cy="103.32272"
     inkscape:window-x="0"
     inkscape:window-y="0"
     inkscape:window-maximized="1"
     inkscape:current-layer="g10" /><g
     id="g10"
     inkscape:groupmode="layer"
     inkscape:label="ink_ext_XXXXXX"
     transform="matrix(1.3333333,0,0,-1.3333333,19.647396,242.39866)"><rect
       style="opacity:1;vector-effect:none;fill:#ffffff;fill-opacity:1;fill-rule:evenodd;stroke:none;stroke-width:1.13385832;stroke-linecap:butt;stroke-linejoin:miter;stroke-miterlimit:4;stroke-dasharray:none;stroke-dashoffset:0;stroke-opacity:1"
       id="rect71"
       width="157.55954"
       height="196.58377"
       x="-14.735543"
       y="-181.799"
       transform="scale(1,-1)" /><g
       id="g12"
       transform="scale(0.1)"><path
         d="M 320.988,1186.61 800.168,1665.78 1278.24,1187.72 799.059,708.559 640.441,867.168 963.223,1189.94 804.605,1348.55 481.824,1025.78 320.988,1186.61"
         style="fill:#9e9c9d;fill-opacity:1;fill-rule:evenodd;stroke:none"
         id="path14"
         inkscape:connector-curvature="0" /><path
         d="M 485.152,1667.99 643.77,1509.38 320.988,1186.61 481.824,1025.78 804.605,1348.55 963.223,1189.94 480.715,707.449 2.64453,1185.5 485.152,1667.99"
         style="fill:#1e59ae;fill-opacity:1;fill-rule:evenodd;stroke:none"
         id="path16"
         inkscape:connector-curvature="0" /><path
         d="M 540.746,4.16016 V 129.348 H 526.148 V 4.16016 h 14.598"
         style="fill:#1e59ae;fill-opacity:1;fill-rule:nonzero;stroke:none"
         id="path18"
         inkscape:connector-curvature="0" /><path
         d="M 698.75,4.16016 V 129.348 h -14.777 l 0.547,-68.0511 c 0.183,-17.8828 1.644,-37.7696 1.644,-38.1328 -0.551,1.2773 -5.476,14.414 -11.68,26.2695 L 632.887,129.348 H 615.551 V 4.16016 h 15.512 l -0.735,72.64454 c -0.18,16.2344 -1.64,34.1173 -1.64,34.1173 0,0 6.207,-14.9611 14.234,-30.1056 L 683.063,4.16016 h 15.687"
         style="fill:#1e59ae;fill-opacity:1;fill-rule:nonzero;stroke:none"
         id="path20"
         inkscape:connector-curvature="0" /><path
         d="m 843.621,129.348 h -82.836 v -12.586 h 33.57 V 4.16016 H 808.77 V 116.762 h 33.937 l 0.914,12.586"
         style="fill:#1e59ae;fill-opacity:1;fill-rule:nonzero;stroke:none"
         id="path22"
         inkscape:connector-curvature="0" /><path
         d="M 978.273,4.16016 936.855,129.348 H 917.332 L 875.551,4.16016 h 15.144 l 12.039,38.52734 h 46.711 L 961.305,4.16016 Z M 945.613,54.9102 H 906.75 l 19.707,61.3048 z"
         style="fill:#1e59ae;fill-opacity:1;fill-rule:nonzero;stroke:none"
         id="path24"
         inkscape:connector-curvature="0" /><path
         d="m 1117.49,12.3984 -8.03,10.0352 c -8.03,-5.6563 -15.15,-8.0273 -24.45,-8.0273 -14.23,0 -27.19,7.6601 -33.57,23.3515 -2.92,7.2969 -4.02,14.4141 -4.02,26.457 0,14.7774 1.65,24.8125 5.29,33.2032 6.02,14.051 16.43,21.531 30.84,21.531 9.12,0 16.24,-2.371 23.72,-7.844 l 8.03,9.668 c -8.58,6.567 -19.53,10.215 -31.57,10.215 -30.29,0 -52.55,-27.363 -52.55,-64.5857 0,-18.6093 4.39,-35.5742 14.96,-47.6171 9.68,-10.94926 23,-16.63286 36.5,-16.63286 12.41,0 24.81,3.67969 34.85,10.24606"
         style="fill:#1e59ae;fill-opacity:1;fill-rule:nonzero;stroke:none"
         id="path26"
         inkscape:connector-curvature="0" /><path
         d="m 1251.41,129.348 h -82.84 v -12.586 h 33.57 V 4.16016 h 14.42 V 116.762 h 33.94 l 0.91,12.586"
         style="fill:#1e59ae;fill-opacity:1;fill-rule:nonzero;stroke:none"
         id="path28"
         inkscape:connector-curvature="0" /><path
         d="m 44.4219,4.17188 h 25.7226 l 4.3789,66.22652 c 0.5469,7.8477 0.9141,14.961 0.9141,22.4414 0,0 3.4688,-15.871 5.1094,-22.0742 L 98.6094,4.17188 H 121.051 L 141.121,73.5 c 2.188,7.6641 3.102,11.3125 4.563,18.6133 0,-6.7539 0.546,-12.2266 1.093,-20.2539 L 151.52,4.17188 h 25.179 L 165.387,130.973 H 132 L 114.848,68.0273 c -2.008,-7.4765 -3.285,-13.3164 -4.563,-19.8828 -1.094,6.5664 -2.008,10.2149 -4.379,19.336 L 89.3008,130.973 H 56.2773 L 44.4219,4.17188"
         style="fill:#1e59ae;fill-opacity:1;fill-rule:nonzero;stroke:none"
         id="path30"
         inkscape:connector-curvature="0" /><path
         d="m 257.527,4.17188 h 26.637 V 130.973 H 257.527 V 4.17188"
         style="fill:#1e59ae;fill-opacity:1;fill-rule:nonzero;stroke:none"
         id="path32"
         inkscape:connector-curvature="0" /><path
         d="m 370.102,4.17188 h 39.957 c 6.933,0 12.226,0.18359 16.242,0.36328 22.258,1.46093 33.203,17.51564 33.203,35.03124 0,16.6055 -8.207,26.8203 -25.176,31.9297 5.836,1.8242 8.027,3.1016 11.676,6.5703 5.473,5.4414 8.574,12.707 8.574,21.2227 0,9.0939 -3.281,16.3589 -10.398,22.5629 -7.664,6.75 -15.692,9.121 -31.2,9.121 H 370.102 Z M 410.059,109.262 c 5.656,0 8.394,-0.699 10.582,-1.614 4.382,-2.187 7.3,-7.449 7.3,-12.7105 0,-5.0742 -3.101,-11.25 -6.566,-13.043 -2.191,-1.2773 -4.93,-1.6406 -10.949,-1.6406 h -15.145 v 29.0081 z m 1.461,-49.9886 c 5.839,0 6.753,-0.1836 9.855,-1.0976 5.473,-2.0039 9.301,-8.211 9.301,-15.5078 0,-6.0196 -2.735,-11.8594 -6.567,-14.7774 -2.921,-2.0078 -6.57,-2.9218 -11.859,-2.9218 h -16.605 v 34.3046 h 15.875"
         style="fill:#1e59ae;fill-opacity:1;fill-rule:nonzero;stroke:none"
         id="path34"
         inkscape:connector-curvature="0" /><path
         d="M 113.512,185.059 V 584.434 H 56.7148 V 185.059 h 56.7972"
         style="fill:#9e9c9d;fill-opacity:1;fill-rule:nonzero;stroke:none"
         id="path36"
         inkscape:connector-curvature="0" /><path
         d="M 433.711,231.512 H 281.871 V 584.434 H 225.074 V 185.059 h 199.364 l 9.273,46.453"
         style="fill:#9e9c9d;fill-opacity:1;fill-rule:nonzero;stroke:none"
         id="path38"
         inkscape:connector-curvature="0" /><path
         d="m 763.184,185.059 c -8.114,12.843 -40.571,65 -57.954,92.234 -13.332,20.863 -25.503,38.25 -33.617,49.258 -6.953,9.273 -16.226,22.023 -34.769,37.09 66.648,-2.317 106.636,47.519 106.636,109.527 0,38.824 -17.386,65.484 -35.355,82.289 -19.121,17.965 -46.945,28.977 -94.465,28.977 H 501.805 V 185.059 h 55.64 v 176.843 c 16.805,-0.578 25.5,-6.375 35.93,-17.964 28.398,-31.875 38.25,-48.676 68.965,-99.676 16.23,-27.235 21.445,-36.508 33.035,-59.203 z m -78.243,287.527 c 0,-23.176 -7.531,-42.301 -19.703,-53.895 -13.906,-13.328 -33.613,-19.121 -68.965,-19.121 h -38.828 v 139.082 h 41.727 c 20.863,0 37.09,-2.898 48.68,-7.535 22.023,-8.691 37.089,-30.715 37.089,-58.531"
         style="fill:#9e9c9d;fill-opacity:1;fill-rule:nonzero;stroke:none"
         id="path40"
         inkscape:connector-curvature="0" /><path
         d="m 1096.13,301.637 c 0,62.004 -44.04,96.773 -97.36,112.422 l -46.942,13.906 c -42.887,12.75 -59.113,28.976 -59.113,57.371 0,37.09 27.816,60.269 72.441,60.269 33.035,0 57.954,-8.691 95.044,-31.292 l 24.92,39.406 c -35.35,24.918 -78.24,37.668 -122.28,37.668 -78.82,0 -132.137,-46.938 -132.137,-115.899 0,-56.797 34.192,-85.769 94.465,-103.156 l 41.727,-12.168 c 44.625,-12.75 66.065,-35.351 66.065,-67.805 0,-42.879 -34.19,-69.535 -86.347,-69.535 -39.992,0 -73.027,11.586 -107.797,33.031 l -22.023,-42.886 c 38.828,-23.758 82.875,-35.446 128.66,-35.446 104.897,0 150.677,68.477 150.677,124.114"
         style="fill:#9e9c9d;fill-opacity:1;fill-rule:nonzero;stroke:none"
         id="path42"
         inkscape:connector-curvature="0" /><path
         d="m 1234.01,215.293 -91.49,0.004 v -13.184 l 91.81,-0.004 c 11.26,0 16.4,-0.644 20.13,-2.734 4.18,-2.414 8.36,-7.238 10.77,-13.215 l 8.2,6.457 c -2.89,8.528 -7.88,15.117 -14.15,18.656 -5.95,3.379 -11.28,4.02 -25.27,4.02"
         style="fill:#9e9c9d;fill-opacity:1;fill-rule:nonzero;stroke:none"
         id="path44"
         inkscape:connector-curvature="0" /><path
         d="m 1252.86,330.918 h -11.45 v -48.559 h -40.36 v 37.786 l -11.41,0.003 -0.01,-37.789 -36.17,0.004 v 45.18 l -10.94,1.77 v -60.297 l 110.33,-0.004 0.01,61.906"
         style="fill:#9e9c9d;fill-opacity:1;fill-rule:nonzero;stroke:none"
         id="path46"
         inkscape:connector-curvature="0" /><path
         d="m 1252.86,449.117 -110.33,0.004 v -13.023 l 59.97,0.476 c 15.76,0.164 33.29,1.449 33.61,1.449 -1.13,-0.48 -12.7,-4.824 -23.16,-10.289 l -70.42,-36.66 v -15.273 l 110.33,-0.004 v 13.668 l -64.02,-0.641 c -14.32,-0.164 -30.07,-1.449 -30.07,-1.449 0,0 13.18,5.469 26.53,12.543 l 67.56,35.371 v 13.828"
         style="fill:#9e9c9d;fill-opacity:1;fill-rule:nonzero;stroke:none"
         id="path48"
         inkscape:connector-curvature="0" /><path
         d="m 1252.86,579.699 -110.33,-36.496 v -17.207 l 110.33,-36.824 v 13.348 l -33.95,10.609 v 41.164 l 33.95,10.449 z m -44.72,-28.781 v -34.25 l -54.03,17.367 z"
         style="fill:#9e9c9d;fill-opacity:1;fill-rule:nonzero;stroke:none"
         id="path50"
         inkscape:connector-curvature="0" /></g></g></svg>