<?xml version="1.0" encoding="UTF-8" standalone="no"?>
<svg
  xmlns:dc="http://purl.org/dc/elements/1.1/"
  xmlns:cc="http://creativecommons.org/ns#"
  xmlns:rdf="http://www.w3.org/1999/02/22-rdf-syntax-ns#"
  xmlns:svg="http://www.w3.org/2000/svg"
  xmlns="http://www.w3.org/2000/svg"
  xmlns:xlink="http://www.w3.org/1999/xlink"
  xmlns:sodipodi="http://sodipodi.sourceforge.net/DTD/sodipodi-0.dtd"
  xmlns:inkscape="http://www.inkscape.org/namespaces/inkscape"
  version="1.1"
  viewBox="0 0 149.58169 42.500112"
  height="160.63034"
  width="565.34814">
  <sodipodi:namedview
    inkscape:current-layer="svg8"
    inkscape:window-maximized="1"
    inkscape:window-y="960"
    inkscape:window-x="3840"
    inkscape:cy="80.31517"
    inkscape:cx="282.67407"
    inkscape:zoom="2.3879091"
    showgr="showgr"
    inkscape:window-height="1147"
    inkscape:window-width="1920"
    inkscape:pageshadow="2"
    inkscape:pageopacity="0"
    guidetolerance="10"
    gridtolerance="10"
    objecttolerance="10"
    borderopacity="1"
    bordercolor="#666666"
    pagecolor="#ffffff"/>
  <defs >
    <rect height="82.903717" width="240.11343" y="94.512085" x="12.808742"/>
    <marker style="overflow:visible" refX="0" refY="0" orient="auto">
      <path
        transform="scale(-0.6)"
        d="M 8.7185878,4.0337352 -2.2072895,0.01601326
8.7185884,-4.0017078 c -1.7454984,2.3720609 -1.7354408,5.6174519
-6e-7,8.035443 z"
        style="fill:#666666;fill-opacity:1;fill-rule:evenodd;stroke:#666666;stroke-width:0.625;stroke-linejoin:round;stroke-opacity:1"/>
    </marker>
    <marker style="overflow:visible" refX="0" refY="0" orient="auto">
      <path transform="matrix(-0.8,0,0,-0.8,-10,0)" style="fill:#000000;fill-opacity:1;fill-rule:evenodd;stroke:#000000;stroke-width:1pt;stroke-opacity:1" d="M 0,0 5,-5 -12.5,0 5,5 Z"/>
    </marker>
    <linearGradient >
      <stop offset="0" style="stop-color:#00ff77;stop-opacity:1"/>
      <stop offset="1" style="stop-color:#d73377;stop-opacity:1"/>
    </linearGradient>
    <marker orient="auto" refY="0" refX="0" style="overflow:visible">
      <path
        style="fill:#ff6600;fill-opacity:1;fill-rule:evenodd;stroke:#ff6600;stroke-width:0.625;stroke-linejoin:round;stroke-opacity:1"
        d="M 8.7185878,4.0337352 -2.2072895,0.01601326 8.7185884,-4.0017078 c
-1.7454984,2.3720609 -1.7354408,5.6174519 -6e-7,8.035443 z"
        transform="matrix(-0.3,0,0,-0.3,0.69,0)"/>
    </marker>
    <marker orient="auto" refY="0" refX="0" style="overflow:visible">
      <path d="M
0,0 5,-5 -12.5,0 5,5 Z" style="fill:#000000;fill-opacity:1;fill-rule:evenodd;stroke:#000000;stroke-width:1pt;stroke-opacity:1" transform="matrix(-0.4,0,0,-0.4,-4,0)"/>
    </marker>
    <marker orient="auto" refY="0" refX="0" style="overflow:visible">
      <path d="M
0,0 5,-5 -12.5,0 5,5 Z" style="fill:#1a1a1a;fill-opacity:1;fill-rule:evenodd;stroke:#1a1a1a;stroke-width:1pt;stroke-opacity:1" transform="matrix(-0.4,0,0,-0.4,-4,0)"/>
    </marker>
    <marker orient="auto" refY="0" refX="0" style="overflow:visible">
      <path d="M
0,0 5,-5 -12.5,0 5,5 Z" style="fill:#1a1a1a;fill-opacity:1;fill-rule:evenodd;stroke:#1a1a1a;stroke-width:1pt;stroke-opacity:1" transform="matrix(-0.4,0,0,-0.4,-4,0)"/>
    </marker>
    <marker style="overflow:visible" refX="0" refY="0" orient="auto">
      <path transform="matrix(-0.4,0,0,-0.4,-4,0)" style="fill:#1a1a1a;fill-opacity:1;fill-rule:evenodd;stroke:#1a1a1a;stroke-width:1pt;stroke-opacity:1" d="M 0,0 5,-5 -12.5,0 5,5 Z"/>
    </marker>
    <marker style="overflow:visible" refX="0" refY="0" orient="auto">
      <path
        transform="matrix(-0.3,0,0,-0.3,0.69,0)"
        d="M 8.7185878,4.0337352
-2.2072895,0.01601326 8.7185884,-4.0017078 c -1.7454984,2.3720609
-1.7354408,5.6174519 -6e-7,8.035443 z"
        style="fill:#ff6600;fill-opacity:1;fill-rule:evenodd;stroke:#ff6600;stroke-width:0.625;stroke-linejoin:round;stroke-opacity:1"/>
    </marker>
    <marker orient="auto" refY="0" refX="0" style="overflow:visible">
      <path
        style="fill:#ff6600;fill-opacity:1;fill-rule:evenodd;stroke:#ff6600;stroke-width:0.625;stroke-linejoin:round;stroke-opacity:1"
        d="M 8.7185878,4.0337352 -2.2072895,0.01601326 8.7185884,-4.0017078 c
-1.7454984,2.3720609 -1.7354408,5.6174519 -6e-7,8.035443 z"
        transform="matrix(-0.3,0,0,-0.3,0.69,0)"/>
    </marker>
    <marker style="overflow:visible" refX="0" refY="0" orient="auto">
      <path
        transform="matrix(-0.3,0,0,-0.3,0.69,0)"
        d="M 8.7185878,4.0337352
-2.2072895,0.01601326 8.7185884,-4.0017078 c -1.7454984,2.3720609
-1.7354408,5.6174519 -6e-7,8.035443 z"
        style="fill:#4e84af;fill-opacity:1;fill-rule:evenodd;stroke:#4e84af;stroke-width:0.625;stroke-linejoin:round;stroke-opacity:1"/>
    </marker>
    <marker orient="auto" refY="0" refX="0" style="overflow:visible">
      <path
        style="fill:#333333;fill-opacity:1;fill-rule:evenodd;stroke:#333333;stroke-width:0.625;stroke-linejoin:round;stroke-opacity:1"
        d="M 8.7185878,4.0337352 -2.2072895,0.01601326 8.7185884,-4.0017078 c
-1.7454984,2.3720609 -1.7354408,5.6174519 -6e-7,8.035443 z"
        transform="matrix(-0.3,0,0,-0.3,0.69,0)"/>
    </marker>
    <marker style="overflow:visible" refX="0" refY="0" orient="auto">
      <path
        transform="matrix(-0.3,0,0,-0.3,0.69,0)"
        d="M 8.7185878,4.0337352
-2.2072895,0.01601326 8.7185884,-4.0017078 c -1.7454984,2.3720609
-1.7354408,5.6174519 -6e-7,8.035443 z"
        style="fill:#333333;fill-opacity:1;fill-rule:evenodd;stroke:#333333;stroke-width:0.625;stroke-linejoin:round;stroke-opacity:1"/>
    </marker>
    <marker style="overflow:visible" refX="0" refY="0" orient="auto">
      <path
        transform="matrix(-0.3,0,0,-0.3,0.69,0)"
        d="M
8.7185878,4.0337352 -2.2072895,0.01601326 8.7185884,-4.0017078 c
-1.7454984,2.3720609 -1.7354408,5.6174519 -6e-7,8.035443 z"
        style="fill:#ff6600;fill-opacity:1;fill-rule:evenodd;stroke:#ff6600;stroke-width:0.625;stroke-linejoin:round;stroke-opacity:1"/>
    </marker>
    <marker orient="auto" refY="0" refX="0" style="overflow:visible">
      <path
        style="fill:#333333;fill-opacity:1;fill-rule:evenodd;stroke:#333333;stroke-width:0.625;stroke-linejoin:round;stroke-opacity:1"
        d="M 8.7185878,4.0337352 -2.2072895,0.01601326 8.7185884,-4.0017078 c
-1.7454984,2.3720609 -1.7354408,5.6174519 -6e-7,8.035443 z"
        transform="matrix(-0.3,0,0,-0.3,0.69,0)"/>
    </marker>
    <radialGradient xlink:href="#linearGradient15308" cx="78.171684" cy="116.56663" fx="78.171684" fy="116.56663" r="19.773224" gradientTransform="matrix(2.1857296,3.3967026,-1.49512,0.96209551,81.590634,-277.23639)" gradientUnits="userSpaceOnUse"/>
    <radialGradient xlink:href="#linearGradient15308" cx="78.171677" cy="119.04034" fx="78.171677" fy="119.04034" r="14.813634" gradientTransform="matrix(2.9175096,4.5339152,-1.9705735,1.2680406,84.682827,-404.93395)" gradientUnits="userSpaceOnUse"/>
    <radialGradient xlink:href="#linearGradient15308" cx="78.1717" cy="120.22039" fx="78.1717" fy="120.22039" r="9.8341465" gradientTransform="matrix(4.394781,6.8296481,-2.9115033,1.8735061,84.646268,-658.68103)" gradientUnits="userSpaceOnUse"/>
    <marker orient="auto" refY="0" refX="0" style="overflow:visible">
      <path
        style="fill:#666666;fill-opacity:1;fill-rule:evenodd;stroke:#666666;stroke-width:0.625;stroke-linejoin:round;stroke-opacity:1"
        d="M 8.7185878,4.0337352 -2.2072895,0.01601326 8.7185884,-4.0017078 c
-1.7454984,2.3720609 -1.7354408,5.6174519 -6e-7,8.035443 z"
        transform="scale(-0.6)"/>
    </marker>
    <marker style="overflow:visible" refX="0" refY="0" orient="auto">
      <path
        transform="scale(-0.6)"
        d="M
8.7185878,4.0337352 -2.2072895,0.01601326 8.7185884,-4.0017078 c
-1.7454984,2.3720609 -1.7354408,5.6174519 -6e-7,8.035443 z"
        style="fill:#666666;fill-opacity:1;fill-rule:evenodd;stroke:#666666;stroke-width:0.625;stroke-linejoin:round;stroke-opacity:1"/>
    </marker>
    <marker orient="auto" refY="0" refX="0" style="overflow:visible">
      <path
        style="fill:#666666;fill-opacity:1;fill-rule:evenodd;stroke:#666666;stroke-width:0.625;stroke-linejoin:round;stroke-opacity:1"
        d="M 8.7185878,4.0337352 -2.2072895,0.01601326 8.7185884,-4.0017078 c
-1.7454984,2.3720609 -1.7354408,5.6174519 -6e-7,8.035443 z"
        transform="scale(-0.6)"/>
    </marker>
    <marker style="overflow:visible" refX="0" refY="0" orient="auto">
      <path
        transform="scale(-0.6)"
        d="M
8.7185878,4.0337352 -2.2072895,0.01601326 8.7185884,-4.0017078 c
-1.7454984,2.3720609 -1.7354408,5.6174519 -6e-7,8.035443 z"
        style="fill:#666666;fill-opacity:1;fill-rule:evenodd;stroke:#666666;stroke-width:0.625;stroke-linejoin:round;stroke-opacity:1"/>
    </marker>
    <marker orient="auto" refY="0" refX="0" style="overflow:visible">
      <path
        style="fill:#666666;fill-opacity:1;fill-rule:evenodd;stroke:#666666;stroke-width:0.625;stroke-linejoin:round;stroke-opacity:1"
        d="M 8.7185878,4.0337352 -2.2072895,0.01601326 8.7185884,-4.0017078 c
-1.7454984,2.3720609 -1.7354408,5.6174519 -6e-7,8.035443 z"
        transform="scale(-0.6)"/>
    </marker>
    <marker style="overflow:visible" refX="0" refY="0" orient="auto">
      <path
        transform="scale(-0.6)"
        d="M
8.7185878,4.0337352 -2.2072895,0.01601326 8.7185884,-4.0017078 c
-1.7454984,2.3720609 -1.7354408,5.6174519 -6e-7,8.035443 z"
        style="fill:#666666;fill-opacity:1;fill-rule:evenodd;stroke:#666666;stroke-width:0.625;stroke-linejoin:round;stroke-opacity:1"/>
    </marker>
  </defs>
  <metadata >
    <rdf:RDF>
      <cc:Work rdf:about="">
        <dc:format>image/svg+xml</dc:format>
        <dc:type rdf:resource="http://purl.org/dc/dcmitype/StillImage"/>
        <dc:title/>
      </cc:Work>
    </rdf:RDF>
  </metadata>
  <g transform="translate(56.848157,-75.945183)">
    <path
      d="m
4.2814942,108.92038 q -2.0269229,0 -3.68531269,-0.95203
-1.62767821,-0.95204 -2.57971951,-2.57972 -0.9520351,-1.65839
-0.9520351,-3.6546 0,-0.52208 0.3378339,-0.85991 0.337834,-0.33783
0.8599065,-0.33783 0.5220788,0 0.85990032,0.33783 0.33783396,0.33783
0.33783396,0.85991 0,1.38199 0.64493143,2.51829 0.64493144,1.1056
1.75052459,1.75053 1.1055932,0.64493 2.4261615,0.64493 1.3205682,0
2.4261614,-0.64493 1.1055932,-0.67564 1.719813,-1.78124
0.6449315,-1.1363 0.6449315,-2.48758 V 85.825766 q 0,-0.522078
0.3378339,-0.859906 0.3685518,-0.337834 0.8599001,-0.337834 0.522079,0
0.859907,0.337834 0.337834,0.337834 0.337834,0.859906 v 15.908264 q
0,1.99621 -0.952035,3.6546 -0.9520418,1.62768 -2.6104316,2.57972
-1.6276781,0.95203 -3.6238895,0.95203 z"
      style="font-style:normal;font-variant:normal;font-weight:normal;font-stretch:normal;font-size:4.93889px;line-height:1.25;font-family:Comfortaa;-inkscape-font-specification:Comfortaa;letter-spacing:0px;word-spacing:0px;white-space:pre;fill:#1a1a1a;fill-opacity:1;stroke:none;stroke-width:1"/>
    <path
      d="m 18.807714,108.61328 q -0.491361,0 -0.859907,-0.33783
-0.337834,-0.36856 -0.337834,-0.85991 V 85.825754 q 0,-0.522079
0.337834,-0.859907 0.368552,-0.337833 0.859907,-0.337833 0.522079,0
0.859906,0.337833 0.337834,0.337834 0.337834,0.859907 v 21.589786 q
0,0.49136 -0.337834,0.85991 -0.337834,0.33783 -0.859906,0.33783 z"
      style="font-style:normal;font-variant:normal;font-weight:normal;font-stretch:normal;font-size:4.93889px;line-height:1.25;font-family:Comfortaa;-inkscape-font-specification:Comfortaa;letter-spacing:0px;word-spacing:0px;white-space:pre;fill:#1a1a1a;fill-opacity:1;stroke:none;stroke-width:1"/>
    <g style="fill:#4d4d4d;fill-opacity:1;stroke-width:0.160819" transform="matrix(6.2181844,0,0,6.2181844,-83.963764,-507.18265)">
      <path
        style="font-style:normal;font-variant:normal;font-weight:normal;font-stretch:normal;font-size:4.93889px;line-height:1.25;font-family:Comfortaa;-inkscape-font-specification:Comfortaa;letter-spacing:0px;word-spacing:0px;white-space:pre;fill:#4d4d4d;fill-opacity:1;stroke:none;stroke-width:0.160819"
        d="m 17.900581,99.031468 q -0.08396,0 -0.138289,-0.05433
-0.05433,-0.05433 -0.05433,-0.138289 v -3.47204 q 0,-0.08396
0.05433,-0.138289 0.05433,-0.05433 0.138289,-0.05433 h 0.987778 q
0.360539,0 0.642055,0.162984 0.286456,0.158044 0.444501,0.4445
0.158044,0.281517 0.158044,0.646994 0,0.360539 -0.158044,0.642056
-0.158045,0.281517 -0.444501,0.439561 -0.281516,0.158045
-0.642055,0.158045 h -0.795161 v 1.170517 q 0,0.08396 -0.05433,0.138289
-0.05433,0.05433 -0.138289,0.05433 z m 0.987778,-1.733551 q 0.251883,0
0.449439,-0.108655 0.197555,-0.113595 0.306211,-0.311151
0.113594,-0.197555 0.113594,-0.449439 0,-0.256822 -0.113594,-0.454377
-0.108656,-0.202495 -0.306211,-0.316089 -0.197556,-0.113595
-0.449439,-0.113595 h -0.795161 v 1.753306 z"/>
      <path
        style="font-style:normal;font-variant:normal;font-weight:normal;font-stretch:normal;font-size:4.93889px;line-height:1.25;font-family:Comfortaa;-inkscape-font-specification:Comfortaa;letter-spacing:0px;word-spacing:0px;white-space:pre;fill:#4d4d4d;fill-opacity:1;stroke:none;stroke-width:0.160819"
        d="m 20.952812,99.031468 q -0.08396,0 -0.138289,-0.05433
-0.05433,-0.05433 -0.05433,-0.138289 v -2.31634 q 0,-0.08396
0.05433,-0.138289 0.05433,-0.05433 0.138289,-0.05433 0.08396,0
0.13335,0.05433 0.05433,0.05433 0.05433,0.138289 v 2.31634 q 0,0.08396
-0.05433,0.138289 -0.04939,0.05433 -0.13335,0.05433 z m
-0.0049,-3.215218 q -0.113595,0 -0.192617,-0.07902 -0.07408,-0.07902
-0.07408,-0.192617 0,-0.118533 0.07902,-0.192617 0.07902,-0.07408
0.192616,-0.07408 0.108656,0 0.187678,0.07408 0.07902,0.07408
0.07902,0.192617 0,0.113595 -0.07902,0.192617 -0.07902,0.07902
-0.192616,0.07902 z"/>
      <path
        style="font-style:normal;font-variant:normal;font-weight:normal;font-stretch:normal;font-size:4.93889px;line-height:1.25;font-family:Comfortaa;-inkscape-font-specification:Comfortaa;letter-spacing:0px;word-spacing:0px;white-space:pre;fill:#4d4d4d;fill-opacity:1;stroke:none;stroke-width:0.160819"
        d="m 23.481523,96.3052 q 0.385233,0 0.696383,0.182739 0.316089,0.1778
0.493889,0.493889 0.182739,0.316089 0.182739,0.701323 0,0.385233
-0.1778,0.701322 -0.172861,0.31115 -0.479072,0.493889 -0.301273,0.1778
-0.676628,0.1778 -0.321028,0 -0.587728,-0.13335 -0.2667,-0.138289
-0.439561,-0.375356 v 1.447095 q 0,0.08396 -0.05433,0.138289
-0.05433,0.0543 -0.138289,0.0543 -0.08396,0 -0.138289,-0.0543
-0.04939,-0.0543 -0.04939,-0.138289 V 98.88824 q -0.0049,-0.01482
-0.0049,-0.04445 v -1.160639 q 0,-0.385234 0.1778,-0.701323 Q
22.46905,96.665739 22.7802,96.487939 23.096289,96.3052
23.481523,96.3052 Z m 0,2.40524 q 0.281516,0 0.508705,-0.13335
0.232128,-0.13335 0.360539,-0.365478 0.13335,-0.237067
0.13335,-0.528461 0,-0.291395 -0.13335,-0.523523 -0.128411,-0.237067
-0.360539,-0.370417 -0.227189,-0.138288 -0.508705,-0.138288 -0.281517,0
-0.508706,0.138288 -0.227189,0.13335 -0.360539,0.370417
-0.128411,0.232128 -0.128411,0.523523 0,0.08396 0.0049,0.123472
0.0049,0.0099 0.0049,0.02469 0.04939,0.385234 0.321027,0.632178
0.276578,0.246945 0.666751,0.246945 z"/>
      <path
        style="font-style:normal;font-variant:normal;font-weight:normal;font-stretch:normal;font-size:4.93889px;line-height:1.25;font-family:Comfortaa;-inkscape-font-specification:Comfortaa;letter-spacing:0px;word-spacing:0px;white-space:pre;fill:#4d4d4d;fill-opacity:1;stroke:none;stroke-width:0.160819"
        d="m 26.751061,96.3052 q 0.365478,0 0.646995,0.172861 0.281517,0.167923
0.434622,0.469195 0.158045,0.301272 0.158045,0.686506 0,0.07902
-0.04939,0.128411 -0.04939,0.04445 -0.128411,0.04445 H 25.81761 q
0.03951,0.404989 0.316089,0.656872 0.276578,0.251884 0.691445,0.251884
0.1778,0 0.3556,-0.05927 0.182739,-0.06421 0.291394,-0.158045
0.06421,-0.04939 0.13335,-0.04939 0.05433,0 0.108656,0.03951
0.06421,0.05927 0.06421,0.13335 0,0.06421 -0.05433,0.113594
-0.162984,0.138289 -0.414867,0.232128 -0.251883,0.0889 -0.484011,0.0889
-0.395112,0 -0.706262,-0.172861 -0.31115,-0.1778 -0.48895,-0.48895
-0.172861,-0.316089 -0.172861,-0.7112 0,-0.400051 0.162984,-0.711201
0.167922,-0.316089 0.459316,-0.48895 0.296334,-0.1778 0.671689,-0.1778
z m 0,0.340784 q -0.375355,0 -0.6223,0.232127 -0.246944,0.232128
-0.301272,0.612423 h 1.807634 q -0.03951,-0.380295 -0.276578,-0.612423
-0.237067,-0.232127 -0.607484,-0.232127 z"/>
    </g>
    <g transform="matrix(0.45136725,0,0,0.45136725,-93.091284,36.308368)" style="stroke-width:2.21549">
      <g aria-label="J" style="font-size:100.348px;line-height:1.25;font-family:Comfortaa;-inkscape-font-specification:Comfortaa;letter-spacing:0px;word-spacing:0px;fill:#808080;stroke-width:0.586178"/>
      <g style="opacity:1;stroke-width:2.21549"/>
      <g style="opacity:1;stroke-width:2.21549"/>
      <g style="opacity:1;fill:url(#radialGradient15286);fill-opacity:1;stroke:none;stroke-width:2.21549"/>
      <g style="opacity:1;fill:url(#radialGradient15288);fill-opacity:1;stroke:none;stroke-width:2.21549"/>
      <g style="opacity:1;stroke-width:2.21549"/>
      <g style="opacity:1;fill:url(#radialGradient15290);fill-opacity:1;stroke:none;stroke-width:2.21549"/>
      <path
        style="fill:#65a4e3;fill-opacity:1;stroke:none;stroke-width:4.69018;stroke-linecap:round;stroke-miterlimit:4;stroke-dasharray:none;stroke-opacity:1"
        d="m 86.84761,93.676819 h 17.02875 c 0.29316,0 0.52917,0.236008
0.52917,0.529166 v 17.028745 c 0,0.29316 -0.23601,0.52917
-0.52917,0.52917 H 86.84761 c -0.293158,0 -0.529167,-0.23601
-0.529167,-0.52917 V 94.205985 c 0,-0.293158 0.236009,-0.529166
0.529167,-0.529166 z"/>
      <g transform="matrix(5.3532719,0,0,3.1568372,-348.48384,-316.44213)" style="opacity:1;fill:#65a4e3;fill-opacity:1;stroke-width:0.538931">
        <g style="opacity:1;fill:#65a4e3;fill-opacity:1;stroke-width:0.538931">
          <path
            style="color:#000000;font-style:normal;font-variant:normal;font-weight:normal;font-stretch:normal;font-size:medium;line-height:normal;font-family:sans-serif;font-variant-ligatures:normal;font-variant-position:normal;font-variant-caps:normal;font-variant-numeric:normal;font-variant-alternates:normal;font-variant-east-asian:normal;font-feature-settings:normal;font-variation-settings:normal;text-indent:0;text-align:start;text-decoration:none;text-decoration-line:none;text-decoration-style:solid;text-decoration-color:#000000;letter-spacing:normal;word-spacing:normal;text-transform:none;writing-mode:lr-tb;direction:ltr;text-orientation:mixed;dominant-baseline:auto;baseline-shift:baseline;text-anchor:start;white-space:normal;shape-padding:0;shape-margin:0;inline-size:0;clip-rule:nonzero;display:inline;overflow:visible;visibility:visible;isolation:auto;mix-blend-mode:normal;color-interpolation:sRGB;color-interpolation-filters:linearRGB;solid-color:#000000;solid-opacity:1;vector-effect:none;fill:#65a4e3;fill-opacity:1;fill-rule:evenodd;stroke:none;stroke-width:0.133681;stroke-linecap:butt;stroke-linejoin:round;stroke-miterlimit:4;stroke-dasharray:none;stroke-dashoffset:0;stroke-opacity:1;color-rendering:auto;image-rendering:auto;shape-rendering:auto;text-rendering:auto;enable-background:accumulate;stop-color:#000000;stop-opacity:1"
            d="m 81.316592,148.75141 1.594538,-4.33621 1.594537,4.33621 c
-0.941414,-0.69274 -2.229432,-0.68875 -3.189075,0 z"/>
          <path
            style="color:#000000;font-style:normal;font-variant:normal;font-weight:normal;font-stretch:normal;font-size:medium;line-height:normal;font-family:sans-serif;font-variant-ligatures:normal;font-variant-position:normal;font-variant-caps:normal;font-variant-numeric:normal;font-variant-alternates:normal;font-variant-east-asian:normal;font-feature-settings:normal;font-variation-settings:normal;text-indent:0;text-align:start;text-decoration:none;text-decoration-line:none;text-decoration-style:solid;text-decoration-color:#000000;letter-spacing:normal;word-spacing:normal;text-transform:none;writing-mode:lr-tb;direction:ltr;text-orientation:mixed;dominant-baseline:auto;baseline-shift:baseline;text-anchor:start;white-space:normal;shape-padding:0;shape-margin:0;inline-size:0;clip-rule:nonzero;display:inline;overflow:visible;visibility:visible;isolation:auto;mix-blend-mode:normal;color-interpolation:sRGB;color-interpolation-filters:linearRGB;solid-color:#000000;solid-opacity:1;vector-effect:none;fill:#65a4e3;fill-opacity:1;fill-rule:evenodd;stroke:none;stroke-width:0.133681;stroke-linecap:butt;stroke-linejoin:round;stroke-miterlimit:4;stroke-dasharray:none;stroke-dashoffset:0;stroke-opacity:1;color-rendering:auto;image-rendering:auto;shape-rendering:auto;text-rendering:auto;enable-background:accumulate;stop-color:#000000;stop-opacity:1"
            d="m 82.914062,144.29102 a 0.1240364,0.1240364 0 0 0 -0.11914,0.082 l
-1.595703,4.33593 a 0.1240364,0.1240364 0 0 0 0.189453,0.14258 c
0.917119,-0.65823 2.145233,-0.6606 3.042969,0 a 0.1240364,0.1240364 0 0
0 0.189453,-0.14258 l -1.59375,-4.33593 a 0.1240364,0.1240364 0 0 0
-0.113282,-0.082 z m -0.0039,0.48242 1.392578,3.78906 c
-0.868187,-0.50336 -1.903637,-0.50379 -2.783203,-0.002 z"/>
        </g>
      </g>
      <g transform="translate(100.54167)" style="opacity:1;fill:#aa87de;fill-opacity:1;stroke:none;stroke-width:4.69018;stroke-miterlimit:4;stroke-dasharray:none;stroke-opacity:1"/>
      <g transform="translate(17.465841,2.2945764)" style="opacity:1;fill:#65a4e3;fill-opacity:1;stroke:none;stroke-width:4.69018;stroke-miterlimit:4;stroke-dasharray:none;stroke-opacity:1">
        <path
          d="m 89.041016,99.763672 c -0.365812,-3.37e-4
-0.662446,0.296298 -0.66211,0.662108 -3.38e-4,0.36581 0.296297,0.66245
0.66211,0.66211 h 16.269534 c 0.36581,3.4e-4 0.66245,-0.2963
0.66211,-0.66211 3.4e-4,-0.36581 -0.2963,-0.662445 -0.66211,-0.662108 z
m 16.269534,0 c -0.36582,-3.6e-4 -0.66247,0.296288 -0.66211,0.662108 v
52.56836 c 0,2.47956 -0.57175,4.72107 -1.7168,6.76758 -1.14624,2.00824
-2.70134,3.58645 -4.697265,4.76172 h -0.002 l -0.002,0.002 c
-1.950847,1.17038 -4.107443,1.75391 -6.517578,1.75391 -2.45051,0
-4.646373,-0.5839 -6.636719,-1.75586 -1.955488,-1.17402
-3.49176,-2.75084 -4.638672,-4.75977 v -0.002 c -1.14505,-2.04651
-1.71875,-4.28802 -1.71875,-6.76758 v -6.79102 c -7.21e-4,-0.36429
-0.295862,-0.65943 -0.660156,-0.66015 -0.365057,-3.6e-4
-0.661387,0.29509 -0.66211,0.66015 v 6.79102 c 0,2.68525
0.628631,5.17167 1.884766,7.41602 l 0.002,0.002 0.002,0.002 c
1.253756,2.19864 2.968282,3.95804 5.115235,5.2461 l 0.002,0.002 h 0.002
c 2.193404,1.29153 4.645629,1.93945 7.308594,1.93945 2.624319,0
5.038888,-0.64785 7.193359,-1.93945 2.186206,-1.28732 3.922456,-3.04675
5.177726,-5.24805 l 0.002,-0.002 v -0.002 c 1.25613,-2.24435
1.88672,-4.73077 1.88672,-7.41602 v -52.56836 c 3.6e-4,-0.36582
-0.29628,-0.662468 -0.66211,-0.662108 z"
          style="color:#000000;font-style:normal;font-variant:normal;font-weight:normal;font-stretch:normal;font-size:medium;line-height:normal;font-family:sans-serif;font-variant-ligatures:normal;font-variant-position:normal;font-variant-caps:normal;font-variant-numeric:normal;font-variant-alternates:normal;font-variant-east-asian:normal;font-feature-settings:normal;font-variation-settings:normal;text-indent:0;text-align:start;text-decoration:none;text-decoration-line:none;text-decoration-style:solid;text-decoration-color:#000000;letter-spacing:normal;word-spacing:normal;text-transform:none;writing-mode:lr-tb;direction:ltr;text-orientation:mixed;dominant-baseline:auto;baseline-shift:baseline;text-anchor:start;white-space:normal;shape-padding:0;shape-margin:0;inline-size:0;clip-rule:nonzero;display:inline;overflow:visible;visibility:visible;isolation:auto;mix-blend-mode:normal;color-interpolation:sRGB;color-interpolation-filters:linearRGB;solid-color:#000000;solid-opacity:1;vector-effect:none;fill:#65a4e3;fill-opacity:1;fill-rule:nonzero;stroke:none;stroke-width:4.69018;stroke-linecap:round;stroke-linejoin:round;stroke-miterlimit:4;stroke-dasharray:none;stroke-dashoffset:0;stroke-opacity:1;color-rendering:auto;image-rendering:auto;shape-rendering:auto;text-rendering:auto;enable-background:accumulate;stop-color:#000000;stop-opacity:1"/>
        <path
          d="m 86.395183,95.763672 c -2.524742,-0.109884
-4.662207,2.134978 -4.66211,4.662108 -1.04e-4,2.52714 2.134973,4.66222
4.66211,4.66211 h 14.253257 v 47.90625 c 0,1.85729 -0.39137,3.34679
-1.199221,4.79688 -0.819036,1.43054 -1.817652,2.44258 -3.240235,3.28125
-0.0017,9.8e-4 -0.0022,0.003 -0.0039,0.004 -0.0111,0.006 -0.02217,0.013
-0.0332,0.0195 -0.0065,0.003 -0.01303,0.007 -0.01953,0.01
-1.332336,0.79514 -2.68349,1.17383 -4.439453,1.17383 -1.808596,0
-3.214092,-0.3892 -4.591797,-1.19727 -1.3796,-0.83152
-2.373016,-1.84511 -3.199219,-3.28711 -0.810275,-1.45299
-1.203125,-2.9439 -1.203125,-4.80078 v -6.79102 -0.008 c
-0.005,-2.52046 -2.131877,-4.64738 -4.652344,-4.65234 h -0.0039 c
-2.525409,-0.002 -4.661015,2.12694 -4.666016,4.65234 v 0.008 6.79102 c
0,3.30953 0.801249,6.52241 2.394532,9.36914 0.0065,0.0111
0.01297,0.0222 0.01953,0.0332 0.167121,0.29266 0.370556,0.56304
0.605469,0.80469 1.532134,2.37857 3.496583,4.43128 5.925781,5.88867
0.01104,0.007 0.0221,0.0131 0.0332,0.0195 0.315779,0.18554
0.655542,0.32683 1.009766,0.41992 2.572667,1.30564 5.389274,2.07226
8.328125,2.07226 3.276942,0 6.458811,-0.8417 9.234377,-2.50195
2.45726,-1.44968 4.44698,-3.50092 5.99023,-5.88477 0.5215,-0.8441
0.56432,-0.91065 1.02734,-1.82812 1.26757,-2.60533 2.00782,-5.43964
2.00782,-8.39258 v -52.56445 -0.004 c 1.2e-4,-1.263654
-0.53318,-2.429659 -1.38282,-3.279296 -0.42526,-0.425261
-0.93008,-0.770126 -1.48632,-1.009765 -0.55505,-0.239139
-1.16185,-0.373073 -1.79297,-0.373047 H 86.399089 Z m 18.915367,0
1.39843,0.251953 c -0.44615,-0.166305 -0.9184,-0.251627
-1.39453,-0.251953 z m -22.968753,73.326168 -0.767578,-0.59961 c
0.230481,0.23039 0.488251,0.43175 0.767578,0.59961 z"
          style="color:#000000;font-style:normal;font-variant:normal;font-weight:normal;font-stretch:normal;font-size:medium;line-height:normal;font-family:sans-serif;font-variant-ligatures:normal;font-variant-position:normal;font-variant-caps:normal;font-variant-numeric:normal;font-variant-alternates:normal;font-variant-east-asian:normal;font-feature-settings:normal;font-variation-settings:normal;text-indent:0;text-align:start;text-decoration:none;text-decoration-line:none;text-decoration-style:solid;text-decoration-color:#000000;letter-spacing:normal;word-spacing:normal;text-transform:none;writing-mode:lr-tb;direction:ltr;text-orientation:mixed;dominant-baseline:auto;baseline-shift:baseline;text-anchor:start;white-space:normal;shape-padding:0;shape-margin:0;inline-size:0;clip-rule:nonzero;display:inline;overflow:visible;visibility:visible;isolation:auto;mix-blend-mode:normal;color-interpolation:sRGB;color-interpolation-filters:linearRGB;solid-color:#000000;solid-opacity:1;vector-effect:none;fill:#65a4e3;fill-opacity:1;fill-rule:nonzero;stroke:none;stroke-width:4.69018;stroke-linecap:round;stroke-linejoin:round;stroke-miterlimit:4;stroke-dasharray:none;stroke-dashoffset:0;stroke-opacity:1;color-rendering:auto;image-rendering:auto;shape-rendering:auto;text-rendering:auto;enable-background:accumulate;stop-color:#000000;stop-opacity:1"/>
      </g>
      <path
        style="fill:#65a4e3;fill-opacity:1;stroke:none;stroke-width:1.02441;stroke-opacity:1"
        d="m 139.10578,124.26759 h 0.13011 c 2.4376,0 4.4,1.9624 4.4,4.4 v
40.59762 c 0,2.4376 -1.9624,4.4 -4.4,4.4 h -0.13011 c -2.4376,0
-4.4,-1.9624 -4.4,-4.4 v -40.59762 c 0,-2.4376 1.9624,-4.4 4.4,-4.4 z"/>
      <path
        style="fill:#65a4e3;fill-opacity:1;stroke:none;stroke-width:4.69018;stroke-linecap:round;stroke-miterlimit:4;stroke-dasharray:none;stroke-opacity:1"
        d="m 130.65647,93.676819 h 17.02875 c 0.29316,0 0.52917,0.236008
0.52917,0.529166 v 17.028745 c 0,0.29316 -0.23601,0.52917
-0.52917,0.52917 h -17.02875 c -0.29316,0 -0.52917,-0.23601
-0.52917,-0.52917 V 94.205985 c 0,-0.293158 0.23601,-0.529166
0.52917,-0.529166 z"/>
      <g style="opacity:1;fill:#65a4e3;fill-opacity:1;stroke-width:0.538931" transform="matrix(5.353272,0,0,3.1568371,-304.82487,-338.4476)">
        <g style="opacity:1;fill:#65a4e3;fill-opacity:1;stroke-width:0.538931">
          <path
            d="m 81.316592,148.75141 1.594538,-4.33621 1.594537,4.33621 c
-0.941414,-0.69274 -2.229432,-0.68875 -3.189075,0 z"
            style="color:#000000;font-style:normal;font-variant:normal;font-weight:normal;font-stretch:normal;font-size:medium;line-height:normal;font-family:sans-serif;font-variant-ligatures:normal;font-variant-position:normal;font-variant-caps:normal;font-variant-numeric:normal;font-variant-alternates:normal;font-variant-east-asian:normal;font-feature-settings:normal;font-variation-settings:normal;text-indent:0;text-align:start;text-decoration:none;text-decoration-line:none;text-decoration-style:solid;text-decoration-color:#000000;letter-spacing:normal;word-spacing:normal;text-transform:none;writing-mode:lr-tb;direction:ltr;text-orientation:mixed;dominant-baseline:auto;baseline-shift:baseline;text-anchor:start;white-space:normal;shape-padding:0;shape-margin:0;inline-size:0;clip-rule:nonzero;display:inline;overflow:visible;visibility:visible;isolation:auto;mix-blend-mode:normal;color-interpolation:sRGB;color-interpolation-filters:linearRGB;solid-color:#000000;solid-opacity:1;vector-effect:none;fill:#65a4e3;fill-opacity:1;fill-rule:evenodd;stroke:none;stroke-width:0.133681;stroke-linecap:butt;stroke-linejoin:round;stroke-miterlimit:4;stroke-dasharray:none;stroke-dashoffset:0;stroke-opacity:1;color-rendering:auto;image-rendering:auto;shape-rendering:auto;text-rendering:auto;enable-background:accumulate;stop-color:#000000;stop-opacity:1"/>
          <path
            d="m 82.914062,144.29102 a 0.1240364,0.1240364 0 0 0
-0.11914,0.082 l -1.595703,4.33593 a 0.1240364,0.1240364 0 0 0
0.189453,0.14258 c 0.917119,-0.65823 2.145233,-0.6606 3.042969,0 a
0.1240364,0.1240364 0 0 0 0.189453,-0.14258 l -1.59375,-4.33593 a
0.1240364,0.1240364 0 0 0 -0.113282,-0.082 z m -0.0039,0.48242
1.392578,3.78906 c -0.868187,-0.50336 -1.903637,-0.50379
-2.783203,-0.002 z"
            style="color:#000000;font-style:normal;font-variant:normal;font-weight:normal;font-stretch:normal;font-size:medium;line-height:normal;font-family:sans-serif;font-variant-ligatures:normal;font-variant-position:normal;font-variant-caps:normal;font-variant-numeric:normal;font-variant-alternates:normal;font-variant-east-asian:normal;font-feature-settings:normal;font-variation-settings:normal;text-indent:0;text-align:start;text-decoration:none;text-decoration-line:none;text-decoration-style:solid;text-decoration-color:#000000;letter-spacing:normal;word-spacing:normal;text-transform:none;writing-mode:lr-tb;direction:ltr;text-orientation:mixed;dominant-baseline:auto;baseline-shift:baseline;text-anchor:start;white-space:normal;shape-padding:0;shape-margin:0;inline-size:0;clip-rule:nonzero;display:inline;overflow:visible;visibility:visible;isolation:auto;mix-blend-mode:normal;color-interpolation:sRGB;color-interpolation-filters:linearRGB;solid-color:#000000;solid-opacity:1;vector-effect:none;fill:#65a4e3;fill-opacity:1;fill-rule:evenodd;stroke:none;stroke-width:0.133681;stroke-linecap:butt;stroke-linejoin:round;stroke-miterlimit:4;stroke-dasharray:none;stroke-dashoffset:0;stroke-opacity:1;color-rendering:auto;image-rendering:auto;shape-rendering:auto;text-rendering:auto;enable-background:accumulate;stop-color:#000000;stop-opacity:1"/>
        </g>
      </g>
      <g style="opacity:1;fill:#aa87de;fill-opacity:1;stroke:none;stroke-width:4.69018;stroke-miterlimit:4;stroke-dasharray:none;stroke-opacity:1" transform="rotate(180,130.55378,132.63932)">
        <path
          style="color:#000000;font-style:normal;font-variant:normal;font-weight:normal;font-stretch:normal;font-size:medium;line-height:normal;font-family:sans-serif;font-variant-ligatures:normal;font-variant-position:normal;font-variant-caps:normal;font-variant-numeric:normal;font-variant-alternates:normal;font-variant-east-asian:normal;font-feature-settings:normal;font-variation-settings:normal;text-indent:0;text-align:start;text-decoration:none;text-decoration-line:none;text-decoration-style:solid;text-decoration-color:#000000;letter-spacing:normal;word-spacing:normal;text-transform:none;writing-mode:lr-tb;direction:ltr;text-orientation:mixed;dominant-baseline:auto;baseline-shift:baseline;text-anchor:start;white-space:normal;shape-padding:0;shape-margin:0;inline-size:0;clip-rule:nonzero;display:inline;overflow:visible;visibility:visible;isolation:auto;mix-blend-mode:normal;color-interpolation:sRGB;color-interpolation-filters:linearRGB;solid-color:#000000;solid-opacity:1;vector-effect:none;fill:#aa87de;fill-opacity:1;fill-rule:nonzero;stroke:none;stroke-width:4.69018;stroke-linecap:round;stroke-linejoin:round;stroke-miterlimit:4;stroke-dasharray:none;stroke-dashoffset:0;stroke-opacity:1;color-rendering:auto;image-rendering:auto;shape-rendering:auto;text-rendering:auto;enable-background:accumulate;stop-color:#000000;stop-opacity:1"
          d="m 105.30834,91.403521 c -2.52487,-0.10704 -4.66221,2.134978
-4.66211,4.662108 0.002,4.662111 0.002,6.935701 0.002,9.022261 v
47.90625 c 0,1.85729 -0.39137,3.34679 -1.199221,4.79688
-0.819036,1.43054 -1.817652,2.44258 -3.240235,3.28125 -0.0017,9.8e-4
-0.0022,0.003 -0.0039,0.004 -0.0111,0.006 -0.02217,0.013 -0.0332,0.0195
-0.0065,0.003 -0.01303,0.007 -0.01953,0.01 -1.332336,0.79514
-2.68349,1.17383 -4.439453,1.17383 -1.808596,0 -3.214092,-0.3892
-4.591797,-1.19727 -1.3796,-0.83152 -2.373016,-1.84511
-3.199219,-3.28711 -0.810275,-1.45299 -1.203125,-2.9439
-1.203125,-4.80078 l 0.179348,-3.08685 v -0.008 c -0.005,-2.52046
-2.131872,-4.65234 -4.652344,-4.65234 h -0.0039 c -2.52541,0
-4.661015,2.12694 -4.666016,4.65234 v 0.008 l -0.179348,3.08685 c
-0.193492,3.3303 0.801249,6.52241 2.394532,9.36914 0.0065,0.0111
0.01297,0.0222 0.01953,0.0332 0.167121,0.29266 0.370556,0.56304
0.605469,0.80469 1.532134,2.37857 3.496583,4.43128 5.925781,5.88867
0.01104,0.007 0.0221,0.0131 0.0332,0.0195 0.315779,0.18554
0.655542,0.32683 1.009766,0.41992 2.572667,1.30564 5.389274,2.07226
8.328125,2.07226 3.276942,0 6.458811,-0.8417 9.234377,-2.50195
2.45726,-1.44968 4.44698,-3.50092 5.99023,-5.88477 0.5215,-0.8441
0.56432,-0.91065 1.02734,-1.82812 1.26757,-2.60533 2.00782,-5.43964
2.00782,-8.39258 v -56.924601 -0.004 c 0,-1.263654 -0.53318,-2.429659
-1.38282,-3.279296 -0.42526,-0.425261 -0.93008,-0.770126
-1.48632,-1.009765 -0.55505,-0.239139 -1.16185,-0.373073
-1.79297,-0.373047 h 0.002 z m 0.002,0 1.39843,0.251953 c
-0.44615,-0.166305 -0.9184,-0.251953 -1.39453,-0.251953 z m
-22.968753,77.686319 -0.767578,-0.59961 c 0.230481,0.23039
0.488251,0.43175 0.767578,0.59961 z"/>
      </g>
      <path
        d="m
178.27681,110.32348 c 0,0 0.32242,3.22148 -0.16513,4.74244
-0.51002,1.52795 -1.28209,2.71881 -2.50875,3.84011 -1.24086,1.10814
-2.60992,1.81724 -4.42194,2.22292 l -0.43037,0.0964 -0.008,0.002 c
-2.45848,0.55554 -4.07418,3.09679 -3.52351,5.55638 l 8.8e-4,0.004 c
0.55175,2.4644 3.09388,4.08372 5.55936,3.53686 l 0.008,-0.002
0.43037,-0.0964 c 3.22957,-0.72306 6.18978,-2.20689 8.61965,-4.38363
0.009,-0.009 0.0188,-0.0175 0.0282,-0.0263 0.24907,-0.22702
0.46847,-0.4846 0.65296,-0.76664 1.98637,-2.01478 3.5603,-4.38025
4.45176,-7.06918 0.005,-0.0123 0.007,-0.0245 0.0117,-0.0367
0.11206,-0.34868 0.17571,-0.71111 0.18916,-1.07711 0.71204,-2.79575
0.20269,-8.57966 0.20269,-8.57966 z m 8.69309,7.65678 -0.41742,0.88003
c 0.17446,-0.27525 0.31464,-0.57079 0.41742,-0.88003 z"
        style="color:#000000;font-style:normal;font-variant:normal;font-weight:normal;font-stretch:normal;font-size:medium;line-height:normal;font-family:sans-serif;font-variant-ligatures:normal;font-variant-position:normal;font-variant-caps:normal;font-variant-numeric:normal;font-variant-alternates:normal;font-variant-east-asian:normal;font-feature-settings:normal;font-variation-settings:normal;text-indent:0;text-align:start;text-decoration:none;text-decoration-line:none;text-decoration-style:solid;text-decoration-color:#000000;letter-spacing:normal;word-spacing:normal;text-transform:none;writing-mode:lr-tb;direction:ltr;text-orientation:mixed;dominant-baseline:auto;baseline-shift:baseline;text-anchor:start;white-space:normal;shape-padding:0;shape-margin:0;inline-size:0;clip-rule:nonzero;display:inline;overflow:visible;visibility:visible;opacity:1;isolation:auto;mix-blend-mode:normal;color-interpolation:sRGB;color-interpolation-filters:linearRGB;solid-color:#000000;solid-opacity:1;vector-effect:none;fill:#aa87de;fill-opacity:1;fill-rule:nonzero;stroke:none;stroke-width:4.69018;stroke-linecap:round;stroke-linejoin:round;stroke-miterlimit:4;stroke-dasharray:none;stroke-dashoffset:0;stroke-opacity:1;color-rendering:auto;image-rendering:auto;shape-rendering:auto;text-rendering:auto;enable-background:accumulate;stop-color:#000000;stop-opacity:1"/>
      <g transform="matrix(-2.3092648,-4.8295773,2.8480131,-1.3617789,-56.054464,726.95208)" style="opacity:1;fill:#aa87de;fill-opacity:1;stroke-width:0.538931">
        <g style="opacity:1;fill:#aa87de;fill-opacity:1;stroke-width:0.538931">
          <path
            style="color:#000000;font-style:normal;font-variant:normal;font-weight:normal;font-stretch:normal;font-size:medium;line-height:normal;font-family:sans-serif;font-variant-ligatures:normal;font-variant-position:normal;font-variant-caps:normal;font-variant-numeric:normal;font-variant-alternates:normal;font-variant-east-asian:normal;font-feature-settings:normal;font-variation-settings:normal;text-indent:0;text-align:start;text-decoration:none;text-decoration-line:none;text-decoration-style:solid;text-decoration-color:#000000;letter-spacing:normal;word-spacing:normal;text-transform:none;writing-mode:lr-tb;direction:ltr;text-orientation:mixed;dominant-baseline:auto;baseline-shift:baseline;text-anchor:start;white-space:normal;shape-padding:0;shape-margin:0;inline-size:0;clip-rule:nonzero;display:inline;overflow:visible;visibility:visible;isolation:auto;mix-blend-mode:normal;color-interpolation:sRGB;color-interpolation-filters:linearRGB;solid-color:#000000;solid-opacity:1;vector-effect:none;fill:#aa87de;fill-opacity:1;fill-rule:evenodd;stroke:none;stroke-width:0.133681;stroke-linecap:butt;stroke-linejoin:round;stroke-miterlimit:4;stroke-dasharray:none;stroke-dashoffset:0;stroke-opacity:1;color-rendering:auto;image-rendering:auto;shape-rendering:auto;text-rendering:auto;enable-background:accumulate;stop-color:#000000;stop-opacity:1"
            d="m 81.316592,148.75141 1.594538,-4.33621 1.594537,4.33621 c
-0.941414,-0.69274 -2.229432,-0.68875 -3.189075,0 z"/>
          <path
            style="color:#000000;font-style:normal;font-variant:normal;font-weight:normal;font-stretch:normal;font-size:medium;line-height:normal;font-family:sans-serif;font-variant-ligatures:normal;font-variant-position:normal;font-variant-caps:normal;font-variant-numeric:normal;font-variant-alternates:normal;font-variant-east-asian:normal;font-feature-settings:normal;font-variation-settings:normal;text-indent:0;text-align:start;text-decoration:none;text-decoration-line:none;text-decoration-style:solid;text-decoration-color:#000000;letter-spacing:normal;word-spacing:normal;text-transform:none;writing-mode:lr-tb;direction:ltr;text-orientation:mixed;dominant-baseline:auto;baseline-shift:baseline;text-anchor:start;white-space:normal;shape-padding:0;shape-margin:0;inline-size:0;clip-rule:nonzero;display:inline;overflow:visible;visibility:visible;isolation:auto;mix-blend-mode:normal;color-interpolation:sRGB;color-interpolation-filters:linearRGB;solid-color:#000000;solid-opacity:1;vector-effect:none;fill:#aa87de;fill-opacity:1;fill-rule:evenodd;stroke:none;stroke-width:0.133681;stroke-linecap:butt;stroke-linejoin:round;stroke-miterlimit:4;stroke-dasharray:none;stroke-dashoffset:0;stroke-opacity:1;color-rendering:auto;image-rendering:auto;shape-rendering:auto;text-rendering:auto;enable-background:accumulate;stop-color:#000000;stop-opacity:1"
            d="m 82.914062,144.29102 a 0.1240364,0.1240364 0 0 0 -0.11914,0.082 l
-1.595703,4.33593 a 0.1240364,0.1240364 0 0 0 0.189453,0.14258 c
0.917119,-0.65823 2.145233,-0.6606 3.042969,0 a 0.1240364,0.1240364 0 0
0 0.189453,-0.14258 l -1.59375,-4.33593 a 0.1240364,0.1240364 0 0 0
-0.113282,-0.082 z m -0.0039,0.48242 1.392578,3.78906 c
-0.868187,-0.50336 -1.903637,-0.50379 -2.783203,-0.002 z"/>
        </g>
      </g>
      <path
        style="fill:#aa87de;fill-opacity:1;stroke:none;stroke-width:4.69018;stroke-linecap:round;stroke-miterlimit:4;stroke-dasharray:none;stroke-opacity:1"
        d="m 147.28265,155.80931 h 17.02874 c 0.29316,0 0.52917,0.23601
0.52917,0.52917 v 17.02875 c 0,0.29315 -0.23601,0.52916
-0.52917,0.52916 h -17.02874 c -0.29316,0 -0.52917,-0.23601
-0.52917,-0.52916 v -17.02875 c 0,-0.29316 0.23601,-0.52917
0.52917,-0.52917 z"/>
    </g>
  </g>
</svg>
